<?xml version="1.0" encoding="utf-8"?>
<!-- Generator: Adobe Illustrator 23.0.6, SVG Export Plug-In . SVG Version: 6.00 Build 0)  -->
<svg version="1.1" xmlns="http://www.w3.org/2000/svg" xmlns:xlink="http://www.w3.org/1999/xlink" x="0px" y="0px"
	 viewBox="0 0 792 612" enable-background="new 0 0 792 612" xml:space="preserve">
<g id="Layer_2">
	<rect y="0" fill="#231F20" width="792" height="612"/>
</g>
<g id="Layer_1">
	<g>
		<g>
			<path fill="#FFFFFF" d="M221.27,460.28c0-2.36,1.93-4.29,4.18-4.29h28.06c9.21,0,16.6,2.79,21.31,7.5
				c3.64,3.64,5.78,8.89,5.78,14.78v0.21c0,12.32-8.35,19.49-20.02,21.75l18.63,23.99c0.86,0.97,1.39,1.93,1.39,3.1
				c0,2.25-2.14,4.18-4.28,4.18c-1.72,0-3.01-0.96-3.97-2.25l-21.1-27.42h-21.53v25.38c0,2.36-1.93,4.29-4.28,4.29
				c-2.25,0-4.18-1.93-4.18-4.29V460.28z M252.76,494.24c11.25,0,19.28-5.79,19.28-15.42v-0.21c0-9.22-7.07-14.78-19.17-14.78
				h-23.14v30.42H252.76z"/>
			<path fill="#FFFFFF" d="M294.09,525.41l30.43-66.51c1.06-2.36,2.67-3.76,5.35-3.76h0.43c2.57,0,4.29,1.39,5.25,3.76l30.43,66.41
				c0.31,0.75,0.53,1.49,0.53,2.14c0,2.24-1.82,4.07-4.07,4.07c-2.04,0-3.43-1.39-4.18-3.11l-7.82-17.24H309.3l-7.82,17.46
				c-0.74,1.82-2.14,2.89-4.07,2.89c-2.14,0-3.86-1.71-3.86-3.86C293.55,527.01,293.66,526.26,294.09,525.41z M347.12,503.45
				l-17.25-38.35l-17.25,38.35H347.12z"/>
			<path fill="#FFFFFF" d="M382.67,460.28c0-2.36,1.93-4.29,4.17-4.29h21.85c23.56,0,39.84,16.18,39.84,37.28v0.22
				c0,21.09-16.28,37.48-39.84,37.48h-21.85c-2.25,0-4.17-1.93-4.17-4.28V460.28z M408.69,523.16c18.95,0,31.06-12.86,31.06-29.46
				v-0.21c0-16.61-12.11-29.67-31.06-29.67h-17.57v59.34H408.69z"/>
			<path fill="#FFFFFF" d="M467.16,459.75c0-2.35,1.93-4.29,4.18-4.29c2.36,0,4.28,1.94,4.28,4.29v67.47c0,2.36-1.93,4.29-4.28,4.29
				c-2.24,0-4.18-1.93-4.18-4.29V459.75z"/>
			<path fill="#FFFFFF" d="M494.25,493.7v-0.21c0-20.68,15.53-38.78,38.34-38.78c22.82,0,38.13,17.89,38.13,38.56v0.22
				c0,20.66-15.53,38.77-38.35,38.77C509.57,532.26,494.25,514.37,494.25,493.7z M561.95,493.7v-0.21
				c0-17.04-12.43-30.96-29.56-30.96c-17.13,0-29.35,13.71-29.35,30.74v0.22c0,17.03,12.43,30.95,29.56,30.95
				C549.73,524.44,561.95,510.73,561.95,493.7z"/>
		</g>
		<g>
			<g>
				<path fill="#FFFFFF" d="M474.29,79.74c-32.57,0-61.67,17.26-78.52,42.46c-16.85-25.2-45.95-42.46-78.52-42.46
					c-51.9,0-93.95,42.05-93.95,93.95c0,32.93,20.85,56.67,42.64,78.64l85.18,80.53c4.46,4.22,11.81,1.06,11.81-5.09v-62.74
					c0-18.15,14.7-32.87,32.85-32.9c18.15,0.03,32.85,14.75,32.85,32.9v62.74c0,6.14,7.35,9.31,11.81,5.09l85.18-80.53
					c21.79-21.97,42.64-45.71,42.64-78.64C568.24,121.79,526.19,79.74,474.29,79.74z M310.47,246.14c-1.29,1.45-3.08,2.19-4.87,2.19
					c-1.54,0-3.08-0.54-4.32-1.63C273.23,221.83,259,195.88,259,169.56v-0.32c0-22.62,13.81-48.35,32.11-59.83
					c3.05-1.9,7.07-0.99,8.98,2.06c1.91,3.04,1,7.06-2.05,8.97c-14.59,9.15-26.01,30.59-26.01,48.8v0.32
					c0,22.44,12.75,45.12,37.9,67.4C312.61,239.34,312.86,243.45,310.47,246.14z M352.36,221.99c-1.19,2.13-3.41,3.33-5.68,3.33
					c-1.08,0-2.17-0.27-3.18-0.83c-19.02-10.65-31.83-31.57-31.91-52.11v-0.2c0.08-19.53,10.84-37.29,28.15-46.4
					c3.18-1.67,7.12-0.45,8.79,2.73c1.68,3.18,0.45,7.12-2.73,8.79c-13.04,6.86-21.16,20.25-21.19,34.97
					c0.04,16.01,10.18,32.41,25.24,40.85C352.99,214.88,354.11,218.85,352.36,221.99z M395.76,205.36
					c-15.6-0.01-28.24-12.66-28.24-28.25c0-15.6,12.64-28.25,28.24-28.25c15.6,0.01,28.24,12.66,28.24,28.25
					C424,192.7,411.36,205.35,395.76,205.36z M448.04,224.49c-1.01,0.56-2.1,0.83-3.18,0.83c-2.28,0-4.49-1.2-5.68-3.33
					c-1.75-3.14-0.64-7.11,2.5-8.86c15.07-8.44,25.21-24.84,25.24-40.85c-0.03-14.71-8.15-28.1-21.19-34.97
					c-3.19-1.68-4.41-5.61-2.73-8.79c1.68-3.18,5.61-4.4,8.79-2.73c17.31,9.1,28.08,26.86,28.15,46.4v0.2
					C479.86,192.92,467.06,213.84,448.04,224.49z M532.53,169.56c0,26.33-14.23,52.28-42.28,77.15c-1.24,1.09-2.78,1.63-4.32,1.63
					c-1.79,0-3.58-0.74-4.87-2.19c-2.38-2.69-2.14-6.8,0.56-9.19c25.15-22.28,37.9-44.96,37.9-67.4v-0.32
					c0-18.21-11.43-39.65-26.01-48.8c-3.05-1.91-3.96-5.93-2.05-8.97c1.91-3.05,5.93-3.97,8.98-2.06
					c18.3,11.49,32.11,37.21,32.11,59.83V169.56z"/>
			</g>
		</g>
		<g>
			<path fill="#FFFFFF" d="M256.13,358.15h22.51v30.4h28.88v-30.4h22.5v81.2h-22.5V408.5h-28.88v30.85h-22.51V358.15z"/>
			<path fill="#FFFFFF" d="M336.52,408.27v-0.23c0-18.33,13.11-32.83,31.67-32.83c21.69,0,31.67,15.89,31.67,34.34
				c0,1.39,0,3.01-0.12,4.52h-41.99c1.74,6.85,6.73,10.33,13.57,10.33c5.22,0,9.4-1.98,13.92-6.39l12.19,10.09
				c-6.04,7.66-14.74,12.76-27.27,12.76C350.44,440.86,336.52,427.76,336.52,408.27z M379.2,402.52c0-6.71-4.87-11.07-10.9-11.07
				c-5.8,0-10.39,4.48-10.9,11.07H379.2z"/>
			<path fill="#FFFFFF" d="M473.98,376.6h22.03v12.64c3.6-8.58,9.4-14.15,19.84-13.69v23.2h-1.85c-11.48,0-17.98,6.61-17.98,21.11
				v19.48h-22.03V376.6z"/>
			<path fill="#FFFFFF" d="M529.61,419.87v-25.53h-7.41V376.6h7.41v-15.89h22.05v15.89h14.62v17.75h-14.62v21.24
				c0,4.41,1.98,6.25,6.03,6.25c2.9,0,5.69-0.81,8.36-2.08v17.28c-3.94,2.21-9.16,3.61-15.31,3.61
				C537.51,440.64,529.61,434.83,529.61,419.87z"/>
			<path fill="#FFFFFF" d="M234.53,352.3c-6.46,0-11.7,5.24-11.7,11.7s5.24,11.7,11.7,11.7c6.46,0,11.7-5.24,11.7-11.7
				S240.99,352.3,234.53,352.3z"/>
			<g>
				<path fill="#FFFFFF" d="M234.93,381.21h-0.81c-6.36,0-11.51,5.15-11.51,11.51v46.64h23.83v-46.64
					C246.44,386.36,241.29,381.21,234.93,381.21z"/>
			</g>
			<path fill="#FFFFFF" d="M465.45,407.82c0-19.49-13.92-32.59-33.64-32.59c-12.53,0-21.23,5.1-27.27,12.76l12.19,10.09
				c4.53-4.41,8.7-6.39,13.92-6.39c6.77,0,11.71,3.41,13.51,10.11l0.02,0.48l-14.51,0.06c-18.03,0.24-27.5,6.96-27.5,19.69
				c0,12.26,8.74,18.84,23.79,18.84c8.15,0,14.42-3.2,18.62-7.56v6.05h20.85v-30.7c0.01-0.21,0.03-0.39,0.03-0.6V407.82z
				 M432.53,426.82c-5.71,0.25-9.1-3.05-9.1-7c0-3.82,3.04-5.8,8.57-5.8h12.57v0.69C444.49,417.3,443.44,426.36,432.53,426.82z"/>
		</g>
	</g>
</g>
</svg>
